<svg width="36" height="36" viewBox="0 0 36 36" fill="none" xmlns="http://www.w3.org/2000/svg">
<path d="M18 12C14.6863 12 12 14.6863 12 18C12 21.3137 14.6863 24 18 24C21.3137 24 24 21.3137 24 18C24 14.6863 21.3137 12 18 12Z" fill="white"/>
<path fill-rule="evenodd" clip-rule="evenodd" d="M10.8 0C4.83533 0 0 4.83532 0 10.8V25.2C0 31.1647 4.83532 36 10.8 36H25.2C31.1647 36 36 31.1647 36 25.2V10.8C36 4.83533 31.1647 0 25.2 0H10.8ZM9.6 18C9.6 13.3608 13.3608 9.6 18 9.6C22.6392 9.6 26.4 13.3608 26.4 18C26.4 22.6392 22.6392 26.4 18 26.4C13.3608 26.4 9.6 22.6392 9.6 18ZM26.4 9.6H28.8V7.2H26.4V9.6Z" fill="white"/>
</svg>
