<svg width="292" height="53" viewBox="0 0 292 53" fill="none" xmlns="http://www.w3.org/2000/svg">
<path d="M53.6384 44.021H45.9626V45.4093H53.6384V44.021Z" fill="white"/>
<path d="M53.6384 47.9741H45.9626V49.3624H53.6384V47.9741Z" fill="white"/>
<path d="M13.5187 44.7983H4.59448V46.1867H13.5187V44.7983Z" fill="white"/>
<path d="M13.5187 48.7515H4.59448V50.1398H13.5187V48.7515Z" fill="white"/>
<path d="M54.6302 12.3323C52.9815 10.5691 51.7227 10.5274 49.9064 12.1067C47.2566 14.4205 44.6137 16.7344 41.9776 19.0483C40.777 20.1104 39.4703 20.7317 37.849 20.697C34.9108 20.6345 31.9691 20.697 29.0274 20.697C26.0858 20.697 23.1441 20.6449 20.2058 20.7143C18.4477 20.756 17.035 20.0965 15.7352 18.9338C13.1493 16.6153 10.5291 14.3384 7.90899 12.0581C6.16793 10.5413 5.0152 10.576 3.37676 12.2073C0.712161 14.866 0.397472 18.3299 0.609546 21.8562C0.883189 26.3683 2.00171 30.7172 3.56147 34.91C5.27175 39.4568 7.0949 43.9341 8.94883 48.4219C9.25245 49.0286 9.75768 49.5068 10.3752 49.7721C12.3557 50.6294 14.3875 51.3478 16.4022 52.1149C17.0109 52.3573 17.6676 52.4493 18.3182 52.3836C18.9688 52.3178 19.5947 52.096 20.1443 51.7366C21.0653 51.3759 22.0136 51.0915 22.9799 50.8862C25.3196 50.3725 26.8075 50.7925 26.9204 50.3552C27.0332 49.9178 25.5179 49.602 25.3401 48.5955C25.1212 47.3737 26.9306 45.4474 28.9385 45.3364C31.0661 45.2149 33.1287 47.1377 32.9782 48.415C32.8482 49.5013 31.1482 49.9768 31.2952 50.4419C31.4115 50.789 32.4377 50.5044 34.0693 50.7265C35.3515 50.8817 36.6004 51.2475 37.7669 51.8094C39.077 52.3995 40.3015 52.6077 41.6561 52.0559C43.5374 51.2888 45.4837 50.6918 47.3205 49.8276C48.083 49.4152 48.6963 48.7673 49.0718 47.9777C49.9611 46.1381 50.6316 44.184 51.4354 42.2994C54.1924 35.802 56.6688 29.2109 57.2503 22.0436C57.5206 18.5034 57.1751 15.0638 54.6302 12.3323ZM15.7865 31.6786C16.321 31.6709 16.8374 31.8752 17.2258 32.2479C17.6142 32.6206 17.844 33.1324 17.8662 33.6744C17.8599 34.2173 17.6528 34.738 17.286 35.1334C16.9192 35.5287 16.4194 35.7698 15.8857 35.8089C15.3528 35.7861 14.8484 35.558 14.4754 35.1711C14.1024 34.7842 13.8887 34.2676 13.8778 33.7264C13.8762 33.2018 14.0735 32.6966 14.4288 32.3154C14.7841 31.9342 15.2702 31.7063 15.7865 31.6786ZM12.1094 39.7587C11.5741 39.7401 11.0663 39.5137 10.6907 39.1262C10.3152 38.7387 10.1006 38.2196 10.0913 37.6762C10.0957 37.4081 10.1525 37.1435 10.2582 36.8977C10.364 36.652 10.5167 36.4299 10.7075 36.2443C10.8983 36.0588 11.1235 35.9134 11.37 35.8166C11.6165 35.7199 11.8794 35.6736 12.1436 35.6805C12.3987 35.6783 12.6515 35.7299 12.8859 35.8321C13.1203 35.9343 13.3312 36.0848 13.5052 36.2741C13.6792 36.4634 13.8125 36.6873 13.8967 36.9317C13.9809 37.1761 14.0141 37.4355 13.9941 37.6936C14.0012 38.2177 13.8089 38.7244 13.4573 39.1084C13.1056 39.4924 12.6217 39.7241 12.106 39.7553L12.1094 39.7587ZM15.9336 43.7398C15.4 43.7204 14.893 43.4985 14.513 43.118C14.1329 42.7375 13.9075 42.2261 13.8813 41.685C13.8792 41.1637 14.0699 40.6606 14.4157 40.275C14.7614 39.8894 15.2372 39.6495 15.7489 39.6025C16.013 39.589 16.2772 39.629 16.526 39.7201C16.7748 39.8111 17.0033 39.9515 17.1981 40.1331C17.3929 40.3146 17.5502 40.5336 17.6608 40.7774C17.7714 41.0212 17.8331 41.2849 17.8422 41.5532C17.8574 42.0957 17.6681 42.6237 17.3127 43.0294C16.9574 43.4351 16.4629 43.6879 15.9302 43.7363L15.9336 43.7398ZM19.5354 39.7761C19.0214 39.7247 18.5455 39.4785 18.2025 39.0867C17.8595 38.6949 17.6747 38.1863 17.6849 37.6624C17.69 37.3922 17.7488 37.1259 17.8578 36.8793C17.9668 36.6328 18.1237 36.4112 18.3192 36.2277C18.5147 36.0442 18.7447 35.9027 18.9955 35.8117C19.2462 35.7206 19.5124 35.6819 19.7783 35.6979C20.0356 35.7049 20.2888 35.7653 20.5222 35.8754C20.7557 35.9856 20.9644 36.143 21.1355 36.3382C21.3067 36.5333 21.4366 36.7619 21.5173 37.01C21.598 37.258 21.6278 37.5202 21.6048 37.7804C21.5982 38.0493 21.5394 38.3143 21.4318 38.5602C21.3241 38.806 21.1698 39.028 20.9777 39.2133C20.7855 39.3987 20.5592 39.5438 20.3117 39.6403C20.0643 39.7369 19.8005 39.783 19.5354 39.7761ZM48.203 38.9882C48.2053 39.1436 48.1773 39.298 48.1208 39.4425C48.0642 39.587 47.9802 39.7187 47.8735 39.8302C47.7668 39.9417 47.6394 40.0308 47.4988 40.0924C47.3581 40.154 47.2069 40.1869 47.0537 40.1891H44.2317C44.1773 40.1891 44.1251 40.2111 44.0866 40.2501C44.0481 40.2892 44.0265 40.3421 44.0265 40.3974V43.358C44.0288 43.5134 44.0008 43.6678 43.9443 43.8122C43.8878 43.9567 43.8037 44.0885 43.697 44.2C43.5903 44.3115 43.463 44.4006 43.3223 44.4622C43.1816 44.5238 43.0304 44.5566 42.8772 44.5589H40.4828C40.3296 44.5566 40.1784 44.5238 40.0377 44.4622C39.8971 44.4006 39.7697 44.3115 39.663 44.2C39.5563 44.0885 39.4723 43.9567 39.4157 43.8122C39.3592 43.6678 39.3313 43.5134 39.3335 43.358V40.3974C39.3335 40.3421 39.3119 40.2892 39.2734 40.2501C39.2349 40.2111 39.1827 40.1891 39.1283 40.1891H36.3063C36.1532 40.1869 36.0019 40.154 35.8613 40.0924C35.7206 40.0308 35.5933 39.9417 35.4865 39.8302C35.3798 39.7187 35.2958 39.587 35.2393 39.4425C35.1827 39.298 35.1548 39.1436 35.157 38.9882V36.4823C35.1548 36.3268 35.1827 36.1725 35.2393 36.028C35.2958 35.8835 35.3798 35.7518 35.4865 35.6403C35.5933 35.5287 35.7206 35.4396 35.8613 35.3781C36.0019 35.3165 36.1532 35.2836 36.3063 35.2814H39.1283C39.1827 35.2814 39.2349 35.2594 39.2734 35.2204C39.3119 35.1813 39.3335 35.1284 39.3335 35.0731V32.1125C39.3313 31.9571 39.3592 31.8027 39.4157 31.6582C39.4723 31.5138 39.5563 31.382 39.663 31.2705C39.7697 31.159 39.8971 31.0699 40.0377 31.0083C40.1784 30.9467 40.3296 30.9139 40.4828 30.9116H42.8772C43.0304 30.9139 43.1816 30.9467 43.3223 31.0083C43.463 31.0699 43.5903 31.159 43.697 31.2705C43.8037 31.382 43.8878 31.5138 43.9443 31.6582C44.0008 31.8027 44.0288 31.9571 44.0265 32.1125V35.0731C44.0265 35.1284 44.0481 35.1813 44.0866 35.2204C44.1251 35.2594 44.1773 35.2814 44.2317 35.2814H47.0537C47.2069 35.2836 47.3581 35.3165 47.4988 35.3781C47.6394 35.4396 47.7668 35.5287 47.8735 35.6403C47.9802 35.7518 48.0642 35.8835 48.1208 36.028C48.1773 36.1725 48.2053 36.3268 48.203 36.4823V38.9882Z" fill="white"/>
<path d="M71.9895 21.4326C75.0304 21.4326 77.2332 22.8522 78.386 24.5564V21.7519H83.315V41.5356C83.315 46.8529 80.0997 51.0735 73.7375 51.0735C68.2851 51.0735 64.478 48.2968 63.9889 43.8056H68.8598C69.3489 45.5792 71.1652 46.7488 73.6109 46.7488C76.3029 46.7488 78.3996 45.1904 78.3996 41.5426V38.4917C77.2469 40.1924 75.0441 41.7196 72.0032 41.7196C67.0742 41.7196 63.1611 37.6414 63.1611 31.5084C63.1611 25.3755 67.064 21.4326 71.9895 21.4326ZM73.2483 25.7954C70.6282 25.7954 68.1449 27.7808 68.1449 31.505C68.1449 35.2291 70.6282 37.3464 73.2483 37.3464C75.9403 37.3464 78.3791 35.2882 78.3791 31.5674C78.3791 27.8467 75.9403 25.792 73.2483 25.792V25.7954Z" fill="white"/>
<path d="M95.6802 21.4326C98.7895 21.4326 100.921 22.9216 102.077 24.5564V21.7519H107.006V41.3968H102.077V38.523C100.924 40.2237 98.7211 41.7127 95.646 41.7127C90.7547 41.7127 86.8381 37.6344 86.8381 31.5015C86.8381 25.3685 90.7512 21.4326 95.6802 21.4326ZM96.939 25.7954C94.3189 25.7954 91.8356 27.7808 91.8356 31.505C91.8356 35.2292 94.3189 37.3464 96.939 37.3464C99.631 37.3464 102.07 35.2882 102.07 31.5674C102.07 27.8467 99.6446 25.792 96.939 25.792V25.7954Z" fill="white"/>
<path d="M138.868 30.5434C138.868 27.4197 137.157 25.7918 134.568 25.7918C131.979 25.7918 130.234 27.4231 130.234 30.5434V41.3932H125.343V30.5434C125.343 27.4197 123.633 25.7918 121.043 25.7918C118.389 25.7918 116.675 27.4231 116.675 30.5434V41.3932H111.787V21.7518H116.679V24.1258C117.903 22.4945 119.962 21.4672 122.374 21.4672C125.381 21.4672 127.847 22.7792 129.188 25.2261C129.877 24.0677 130.851 23.1118 132.016 22.4526C133.18 21.7934 134.494 21.4537 135.827 21.4672C140.475 21.4672 143.759 24.4452 143.759 29.8701V41.3932H138.868V30.5434Z" fill="white"/>
<path d="M147.874 16.5038C147.874 14.8725 149.133 13.5953 150.881 13.5953C151.269 13.576 151.657 13.637 152.021 13.7745C152.386 13.9119 152.719 14.1231 153 14.3951C153.282 14.667 153.506 14.9942 153.659 15.3567C153.812 15.7192 153.891 16.1094 153.891 16.5038C153.891 16.8982 153.812 17.2885 153.659 17.651C153.506 18.0135 153.282 18.3406 153 18.6126C152.719 18.8846 152.386 19.0957 152.021 19.2332C151.657 19.3707 151.269 19.4316 150.881 19.4124C149.136 19.4089 147.874 18.1351 147.874 16.5038ZM148.398 21.7517H153.289V41.3966H148.398V21.7517Z" fill="white"/>
<path d="M158.642 25.8266H156.426V21.7518H158.628V20.7591C158.628 15.9347 161.32 13.703 166.769 13.8453V18.0276C164.392 17.9582 163.588 18.7218 163.588 20.9362V21.7518H166.978V25.8266H163.609V41.3932H158.642V25.8266Z" fill="white"/>
<path d="M183.486 21.752H188.692L176.72 50.6882H171.5L175.694 40.9005L167.936 21.752H173.409L178.42 35.4721L183.486 21.752Z" fill="white"/>
<path d="M192.078 25.8265H189.772V21.7517H192.078V16.8926H197.007V21.7517H201.341V25.8265H197.007V35.3296C197.007 36.6416 197.53 37.2108 199.059 37.2108H201.33V41.3931H198.252C194.548 41.3931 192.068 39.7966 192.068 35.2949L192.078 25.8265Z" fill="white"/>
<path d="M204.867 15.1538H209.759V24.1988C211.018 22.5328 213.179 21.4672 215.769 21.4672C220.137 21.4672 223.318 24.4452 223.318 29.8701V41.3933H218.426V30.5435C218.426 27.3885 216.716 25.6843 214.127 25.6843C211.473 25.6843 209.759 27.385 209.759 30.5435V41.3933H204.867V15.1538Z" fill="white"/>
<path d="M263.858 30.544C263.858 27.389 262.148 25.6848 259.558 25.6848C256.904 25.6848 255.19 27.3855 255.19 30.544V41.3938H250.299V21.7524H255.19V24.1993C256.449 22.5333 258.546 21.4678 261.026 21.4678C265.534 21.4678 268.749 24.4457 268.749 29.8706V41.3938H263.858V30.544Z" fill="white"/>
<path d="M273.408 15.1538H278.3V30.0784L284.799 21.7484H291.157L282.63 31.6055L291.226 41.3933H284.857L278.286 33.0251V41.3933H273.408V15.1538Z" fill="white"/>
<path d="M243.65 27.1044C242.151 29.534 240.954 31.9914 240.756 34.8999C240.667 36.2188 239.73 36.9477 238.402 37.0032C237.571 37.0414 236.744 37.0032 235.912 37.0032C235.081 37.0032 234.253 37.0206 233.422 37.0032C232.122 36.9755 231.195 36.3091 231.069 35.0561C230.771 32.0261 229.526 29.4403 227.99 26.8684C225.681 23.0505 226.756 18.0386 230.207 15.2134C233.535 12.4853 238.485 12.5339 241.686 15.314C245.155 18.3684 246.044 23.2449 243.65 27.1044Z" fill="white"/>
<path d="M237.8 41.9351H233.932C233.786 41.9351 233.668 42.0547 233.668 42.2023V43.077C233.668 43.2246 233.786 43.3442 233.932 43.3442H237.8C237.946 43.3442 238.064 43.2246 238.064 43.077V42.2023C238.064 42.0547 237.946 41.9351 237.8 41.9351Z" fill="white"/>
<path d="M239.952 39.8208H231.78C231.635 39.8208 231.517 39.9405 231.517 40.088V40.9627C231.517 41.1103 231.635 41.2299 231.78 41.2299H239.952C240.097 41.2299 240.215 41.1103 240.215 40.9627V40.088C240.215 39.9405 240.097 39.8208 239.952 39.8208Z" fill="white"/>
<path d="M239.952 37.7041H231.78C231.635 37.7041 231.517 37.8238 231.517 37.9714V38.846C231.517 38.9936 231.635 39.1133 231.78 39.1133H239.952C240.097 39.1133 240.215 38.9936 240.215 38.846V37.9714C240.215 37.8238 240.097 37.7041 239.952 37.7041Z" fill="white"/>
<path d="M251.225 8.15016L244.54 13.8564L245.42 14.9189L252.106 9.21259L251.225 8.15016Z" fill="white"/>
<path d="M220.409 8.15144L219.528 9.21387L226.214 14.9201L227.094 13.8577L220.409 8.15144Z" fill="white"/>
<path d="M243.966 2.49277L240.365 10.5693L241.612 11.1415L245.213 3.06497L243.966 2.49277Z" fill="white"/>
<path d="M236.518 0.563058L235.15 0.572266L235.208 9.43656L236.576 9.42736L236.518 0.563058Z" fill="white"/>
<path d="M227.854 2.48661L226.607 3.05859L230.206 11.1358L231.453 10.5638L227.854 2.48661Z" fill="white"/>
</svg>
