<svg width="187" height="34" viewBox="0 0 187 34" fill="none" xmlns="http://www.w3.org/2000/svg">
<path d="M34.1245 27.942H29.1901V28.8345H34.1245V27.942Z" fill="#1C4F94"/>
<path d="M34.1245 30.4833H29.1901V31.3758H34.1245V30.4833Z" fill="#1C4F94"/>
<path d="M8.33335 28.4417H2.59637V29.3342H8.33335V28.4417Z" fill="#1C4F94"/>
<path d="M8.33335 30.9831H2.59637V31.8756H8.33335V30.9831Z" fill="#1C4F94"/>
<path d="M34.7622 7.57059C33.7023 6.43711 32.8931 6.41034 31.7255 7.42555C30.0221 8.91305 28.323 10.4005 26.6284 11.888C25.8566 12.5708 25.0166 12.9702 23.9743 12.9479C22.0854 12.9077 20.1943 12.9479 18.3033 12.9479C16.4122 12.9479 14.5211 12.9144 12.6323 12.959C11.502 12.9858 10.5939 12.5619 9.75827 11.8144C8.09588 10.3239 6.41151 8.86025 4.72714 7.39432C3.60788 6.41926 2.86685 6.44158 1.81356 7.49026C0.100605 9.1994 -0.101695 11.4262 0.0346382 13.6931C0.210552 16.5937 0.929598 19.3895 1.93231 22.0848C3.03177 25.0078 4.20379 27.8861 5.39561 30.7711C5.59079 31.1611 5.91558 31.4685 6.31256 31.639C7.58573 32.1901 8.89189 32.652 10.1871 33.1451C10.5783 33.3009 11.0005 33.3601 11.4188 33.3179C11.837 33.2756 12.2394 33.133 12.5927 32.9019C13.1848 32.6701 13.7944 32.4872 14.4156 32.3553C15.9196 32.025 16.8762 32.295 16.9487 32.0139C17.0213 31.7327 16.0472 31.5297 15.9328 30.8826C15.7921 30.0972 16.9553 28.8589 18.2461 28.7875C19.6138 28.7094 20.9398 29.9455 20.843 30.7666C20.7595 31.465 19.6666 31.7707 19.7612 32.0697C19.8359 32.2928 20.4956 32.1098 21.5445 32.2526C22.3688 32.3524 23.1716 32.5875 23.9215 32.9488C24.7637 33.3281 25.5509 33.462 26.4217 33.1072C27.6311 32.6141 28.8823 32.2303 30.0631 31.6747C30.5533 31.4096 30.9476 30.9931 31.1889 30.4855C31.7607 29.3029 32.1917 28.0467 32.7084 26.8352C34.4807 22.6583 36.0728 18.4211 36.4466 13.8136C36.6203 11.5377 36.3982 9.32658 34.7622 7.57059ZM9.79125 20.0075C10.1349 20.0026 10.4668 20.1339 10.7165 20.3735C10.9662 20.6131 11.1139 20.9421 11.1282 21.2905C11.1241 21.6395 10.991 21.9743 10.7552 22.2284C10.5194 22.4826 10.1981 22.6376 9.85502 22.6627C9.51241 22.648 9.1882 22.5014 8.9484 22.2527C8.70859 22.004 8.57122 21.6719 8.56425 21.324C8.56323 20.9867 8.69003 20.6619 8.91843 20.4169C9.14682 20.1719 9.45932 20.0253 9.79125 20.0075ZM7.42741 25.2019C7.08329 25.1899 6.75683 25.0444 6.51541 24.7953C6.27399 24.5461 6.13605 24.2125 6.13005 23.8631C6.1329 23.6908 6.16937 23.5207 6.23736 23.3627C6.30536 23.2047 6.40352 23.0619 6.52619 22.9426C6.64886 22.8233 6.7936 22.7299 6.95206 22.6677C7.11052 22.6055 7.27955 22.5757 7.4494 22.5802C7.6134 22.5787 7.7759 22.6119 7.92658 22.6776C8.07727 22.7433 8.21285 22.8401 8.32471 22.9617C8.43658 23.0834 8.52228 23.2274 8.57639 23.3845C8.6305 23.5416 8.65183 23.7084 8.63902 23.8743C8.64357 24.2112 8.51996 24.537 8.2939 24.7838C8.06783 25.0307 7.75671 25.1796 7.42521 25.1997L7.42741 25.2019ZM9.88581 27.7611C9.5428 27.7487 9.21689 27.6061 8.97256 27.3614C8.72824 27.1168 8.58331 26.7881 8.56645 26.4402C8.56511 26.1051 8.6877 25.7816 8.90999 25.5338C9.13229 25.2859 9.43812 25.1316 9.76706 25.1015C9.93688 25.0928 10.1067 25.1185 10.2667 25.177C10.4266 25.2356 10.5735 25.3258 10.6987 25.4425C10.8239 25.5592 10.9251 25.7 10.9961 25.8568C11.0672 26.0135 11.1069 26.183 11.1128 26.3554C11.1226 26.7042 11.0008 27.0436 10.7724 27.3044C10.544 27.5652 10.2261 27.7278 9.88361 27.7589L9.88581 27.7611ZM12.2013 25.213C11.8709 25.18 11.5649 25.0217 11.3444 24.7699C11.1239 24.518 11.0051 24.191 11.0117 23.8542C11.0149 23.6805 11.0527 23.5093 11.1228 23.3508C11.1929 23.1924 11.2938 23.0499 11.4194 22.9319C11.5451 22.814 11.693 22.723 11.8542 22.6645C12.0153 22.606 12.1865 22.5811 12.3574 22.5913C12.5228 22.5958 12.6856 22.6347 12.8357 22.7055C12.9857 22.7763 13.1199 22.8775 13.2299 23.003C13.3399 23.1284 13.4235 23.2754 13.4754 23.4348C13.5272 23.5943 13.5464 23.7628 13.5316 23.9301C13.5273 24.103 13.4895 24.2733 13.4203 24.4314C13.3512 24.5894 13.252 24.7321 13.1284 24.8513C13.0049 24.9704 12.8594 25.0637 12.7003 25.1258C12.5412 25.1878 12.3717 25.2175 12.2013 25.213ZM30.6304 24.7066C30.6319 24.8065 30.6139 24.9057 30.5776 24.9986C30.5412 25.0915 30.4872 25.1762 30.4186 25.2478C30.35 25.3195 30.2681 25.3768 30.1777 25.4164C30.0873 25.456 29.9901 25.4771 29.8916 25.4786H28.0775C28.0425 25.4786 28.0089 25.4927 27.9842 25.5178C27.9594 25.5429 27.9455 25.5769 27.9455 25.6124V27.5157C27.947 27.6156 27.929 27.7148 27.8927 27.8077C27.8564 27.9006 27.8023 27.9853 27.7337 28.057C27.6651 28.1287 27.5833 28.1859 27.4928 28.2255C27.4024 28.2651 27.3052 28.2862 27.2067 28.2877H25.6675C25.569 28.2862 25.4718 28.2651 25.3813 28.2255C25.2909 28.1859 25.2091 28.1287 25.1404 28.057C25.0718 27.9853 25.0178 27.9006 24.9815 27.8077C24.9451 27.7148 24.9272 27.6156 24.9286 27.5157V25.6124C24.9286 25.5769 24.9147 25.5429 24.89 25.5178C24.8652 25.4927 24.8317 25.4786 24.7967 25.4786H22.9826C22.8841 25.4771 22.7869 25.456 22.6965 25.4164C22.606 25.3768 22.5242 25.3195 22.4556 25.2478C22.387 25.1762 22.3329 25.0915 22.2966 24.9986C22.2602 24.9057 22.2423 24.8065 22.2437 24.7066V23.0956C22.2423 22.9957 22.2602 22.8964 22.2966 22.8036C22.3329 22.7107 22.387 22.626 22.4556 22.5543C22.5242 22.4826 22.606 22.4253 22.6965 22.3857C22.7869 22.3462 22.8841 22.325 22.9826 22.3236H24.7967C24.8317 22.3236 24.8652 22.3095 24.89 22.2844C24.9147 22.2593 24.9286 22.2252 24.9286 22.1897V20.2865C24.9272 20.1865 24.9451 20.0873 24.9815 19.9944C25.0178 19.9015 25.0718 19.8168 25.1404 19.7452C25.2091 19.6735 25.2909 19.6162 25.3813 19.5766C25.4718 19.537 25.569 19.5159 25.6675 19.5144H27.2067C27.3052 19.5159 27.4024 19.537 27.4928 19.5766C27.5833 19.6162 27.6651 19.6735 27.7337 19.7452C27.8023 19.8168 27.8564 19.9015 27.8927 19.9944C27.929 20.0873 27.947 20.1865 27.9455 20.2865V22.1897C27.9455 22.2252 27.9594 22.2593 27.9842 22.2844C28.0089 22.3095 28.0425 22.3236 28.0775 22.3236H29.8916C29.9901 22.325 30.0873 22.3462 30.1777 22.3857C30.2681 22.4253 30.35 22.4826 30.4186 22.5543C30.4872 22.626 30.5412 22.7107 30.5776 22.8036C30.6139 22.8964 30.6319 22.9957 30.6304 23.0956V24.7066Z" fill="#1C4F94"/>
<path d="M45.9218 13.421C47.8767 13.421 49.2928 14.3336 50.0338 15.4291V13.6263H53.2024V26.3444C53.2024 29.7626 51.1355 32.4758 47.0455 32.4758C43.5404 32.4758 41.093 30.6908 40.7785 27.8036H43.9098C44.2242 28.9438 45.3919 29.6957 46.9641 29.6957C48.6947 29.6957 50.0426 28.6939 50.0426 26.3488V24.3876C49.3016 25.4809 47.8854 26.4626 45.9306 26.4626C42.762 26.4626 40.2464 23.8409 40.2464 19.8983C40.2464 15.9557 42.7554 13.421 45.9218 13.421ZM46.731 16.2257C45.0466 16.2257 43.4502 17.5019 43.4502 19.8961C43.4502 22.2902 45.0466 23.6512 46.731 23.6512C48.4616 23.6512 50.0294 22.3281 50.0294 19.9362C50.0294 17.5443 48.4616 16.2234 46.731 16.2234V16.2257Z" fill="#1C4F94"/>
<path d="M61.1514 13.421C63.1503 13.421 64.5202 14.3782 65.2634 15.4291V13.6263H68.4321V26.2551H65.2634V24.4076C64.5224 25.501 63.1063 26.4582 61.1294 26.4582C57.985 26.4582 55.4672 23.8364 55.4672 19.8938C55.4672 15.9512 57.9828 13.421 61.1514 13.421ZM61.9606 16.2257C60.2763 16.2257 58.6799 17.5019 58.6799 19.8961C58.6799 22.2902 60.2763 23.6513 61.9606 23.6513C63.6912 23.6513 65.259 22.3281 65.259 19.9362C65.259 17.5443 63.7 16.2234 61.9606 16.2234V16.2257Z" fill="#1C4F94"/>
<path d="M88.9149 19.2779C88.9149 17.2698 87.8155 16.2233 86.1509 16.2233C84.4863 16.2233 83.3649 17.272 83.3649 19.2779V26.2528H80.2204V19.2779C80.2204 17.2698 79.121 16.2233 77.4564 16.2233C75.75 16.2233 74.6484 17.272 74.6484 19.2779V26.2528H71.5061V13.6262H74.6506V15.1523C75.4378 14.1037 76.7615 13.4432 78.3118 13.4432C80.2446 13.4432 81.83 14.2866 82.692 15.8597C83.1349 15.115 83.7615 14.5004 84.51 14.0767C85.2585 13.6529 86.103 13.4346 86.9601 13.4432C89.9484 13.4432 92.0594 15.3576 92.0594 18.8451V26.2528H88.9149V19.2779Z" fill="#1C4F94"/>
<path d="M94.7048 10.2525C94.7048 9.20382 95.514 8.38272 96.6376 8.38272C96.8872 8.37035 97.1366 8.40954 97.3708 8.49792C97.605 8.5863 97.8191 8.72203 98 8.89687C98.1809 9.07172 98.325 9.28203 98.4234 9.51506C98.5218 9.74809 98.5726 9.99898 98.5726 10.2525C98.5726 10.506 98.5218 10.7569 98.4234 10.99C98.325 11.223 98.1809 11.4333 98 11.6081C97.8191 11.783 97.605 11.9187 97.3708 12.0071C97.1366 12.0955 96.8872 12.1347 96.6376 12.1223C95.5162 12.1201 94.7048 11.3012 94.7048 10.2525ZM95.0412 13.6262H98.1857V26.255H95.0412V13.6262Z" fill="#1C4F94"/>
<path d="M101.627 16.2457H100.202V13.6262H101.618V12.9881C101.618 9.88666 103.349 8.45196 106.852 8.54345V11.2321C105.323 11.1875 104.807 11.6783 104.807 13.1019V13.6262H106.986V16.2457H104.82V26.2529H101.627V16.2457Z" fill="#1C4F94"/>
<path d="M117.598 13.6262H120.945L113.248 32.2281H109.893L112.589 25.936L107.601 13.6262H111.12L114.341 22.4463L117.598 13.6262Z" fill="#1C4F94"/>
<path d="M123.121 16.2457H121.639V13.6262H123.121V10.5024H126.29V13.6262H129.076V16.2457H126.29V22.3548C126.29 23.1982 126.627 23.5642 127.609 23.5642H129.07V26.2528H127.09C124.709 26.2528 123.115 25.2264 123.115 22.3325L123.121 16.2457Z" fill="#1C4F94"/>
<path d="M131.343 9.38455H134.488V15.1992C135.297 14.1282 136.687 13.4432 138.351 13.4432C141.159 13.4432 143.204 15.3576 143.204 18.845V26.2528H140.06V19.2779C140.06 17.2497 138.96 16.1542 137.296 16.1542C135.589 16.1542 134.488 17.2475 134.488 19.2779V26.2528H131.343V9.38455Z" fill="#1C4F94"/>
<path d="M169.266 19.278C169.266 17.2498 168.166 16.1543 166.502 16.1543C164.795 16.1543 163.694 17.2476 163.694 19.278V26.2529H160.549V13.6263H163.694V15.1993C164.503 14.1283 165.851 13.4433 167.445 13.4433C170.343 13.4433 172.41 15.3577 172.41 18.8452V26.2529H169.266V19.278Z" fill="#1C4F94"/>
<path d="M175.405 9.38455H178.55V18.9789L182.728 13.6239H186.815L181.334 19.9607L186.859 26.2528H182.765L178.541 20.8732V26.2528H175.405V9.38455Z" fill="#1C4F94"/>
<path d="M156.275 17.0669C155.312 18.6287 154.542 20.2085 154.414 22.0782C154.357 22.9261 153.755 23.3947 152.901 23.4304C152.367 23.4549 151.835 23.4304 151.301 23.4304C150.766 23.4304 150.234 23.4415 149.7 23.4304C148.864 23.4125 148.268 22.9841 148.187 22.1787C147.996 20.2308 147.195 18.5685 146.208 16.9151C144.724 14.4608 145.414 11.2389 147.633 9.42262C149.772 7.66886 152.954 7.7001 155.012 9.48733C157.242 11.4508 157.814 14.5857 156.275 17.0669Z" fill="#1C4F94"/>
<path d="M152.514 26.6009H150.027C149.934 26.6009 149.858 26.6778 149.858 26.7727V27.335C149.858 27.4299 149.934 27.5068 150.027 27.5068H152.514C152.608 27.5068 152.684 27.4299 152.684 27.335V26.7727C152.684 26.6778 152.608 26.6009 152.514 26.6009Z" fill="#1C4F94"/>
<path d="M153.898 25.2421H148.644C148.551 25.2421 148.475 25.319 148.475 25.4139V25.9761C148.475 26.071 148.551 26.148 148.644 26.148H153.898C153.991 26.148 154.067 26.071 154.067 25.9761V25.4139C154.067 25.319 153.991 25.2421 153.898 25.2421Z" fill="#1C4F94"/>
<path d="M153.898 23.881H148.644C148.551 23.881 148.475 23.9579 148.475 24.0528V24.6151C148.475 24.71 148.551 24.7869 148.644 24.7869H153.898C153.991 24.7869 154.067 24.71 154.067 24.6151V24.0528C154.067 23.9579 153.991 23.881 153.898 23.881Z" fill="#1C4F94"/>
<path d="M161.145 4.88224L156.847 8.55057L157.413 9.23356L161.711 5.56523L161.145 4.88224Z" fill="#1C4F94"/>
<path d="M141.334 4.88308L140.768 5.56607L145.066 9.23439L145.632 8.5514L141.334 4.88308Z" fill="#1C4F94"/>
<path d="M156.478 1.24521L154.163 6.43729L154.965 6.80513L157.279 1.61305L156.478 1.24521Z" fill="#1C4F94"/>
<path d="M151.69 0.00482296L150.811 0.0107422L150.848 5.70922L151.728 5.7033L151.69 0.00482296Z" fill="#1C4F94"/>
<path d="M146.12 1.24122L145.319 1.60892L147.633 6.80141L148.434 6.43371L146.12 1.24122Z" fill="#1C4F94"/>
</svg>
