<svg width="159" height="29" viewBox="0 0 159 29" fill="none" xmlns="http://www.w3.org/2000/svg">
<path d="M29.5786 24.1183H25.4233V24.862H29.5786V24.1183Z" fill="white"/>
<path d="M29.5786 26.2361H25.4233V26.9798H29.5786V26.2361Z" fill="white"/>
<path d="M7.85995 24.5348H3.02881V25.2785H7.85995V24.5348Z" fill="white"/>
<path d="M7.85995 26.6526H3.02881V27.3963H7.85995V26.6526Z" fill="white"/>
<path d="M30.1157 7.14222C29.2232 6.19766 28.5417 6.17534 27.5585 7.02136C26.124 8.26094 24.6933 9.50052 23.2662 10.7401C22.6162 11.3091 21.9089 11.6419 21.0312 11.6233C19.4405 11.5898 17.8481 11.6233 16.2556 11.6233C14.6631 11.6233 13.0706 11.5954 11.48 11.6326C10.5282 11.6549 9.76343 11.3016 9.05977 10.6787C7.65987 9.43668 6.24145 8.21693 4.82303 6.99533C3.8805 6.18278 3.25647 6.20137 2.3695 7.07528C0.927005 8.49956 0.756647 10.3552 0.871454 12.2443C1.01959 14.6615 1.6251 16.9913 2.46949 19.2374C3.39535 21.6732 4.38232 24.0718 5.38595 26.476C5.55032 26.801 5.82383 27.0572 6.15812 27.1993C7.23027 27.6585 8.33019 28.0434 9.42086 28.4543C9.75036 28.5842 10.1059 28.6335 10.4581 28.5983C10.8103 28.563 11.1491 28.4442 11.4466 28.2517C11.9452 28.0584 12.4586 27.9061 12.9817 27.7961C14.2483 27.5209 15.0538 27.7459 15.1149 27.5116C15.176 27.2773 14.3557 27.1081 14.2594 26.5689C14.1409 25.9144 15.1205 24.8825 16.2074 24.823C17.3592 24.7579 18.4758 25.788 18.3943 26.4722C18.3239 27.0542 17.4036 27.309 17.4833 27.5581C17.5462 27.744 18.1017 27.5916 18.985 27.7106C19.6792 27.7937 20.3552 27.9896 20.9867 28.2907C21.6959 28.6068 22.3588 28.7184 23.0921 28.4227C24.1106 28.0118 25.1642 27.692 26.1586 27.229C26.5714 27.0081 26.9034 26.661 27.1067 26.238C27.5881 25.2525 27.951 24.2057 28.3862 23.196C29.8787 19.7153 31.2193 16.1843 31.5341 12.3447C31.6804 10.4482 31.4934 8.60554 30.1157 7.14222ZM9.08755 17.5063C9.37692 17.5022 9.65647 17.6116 9.86673 17.8113C10.077 18.011 10.2014 18.2851 10.2134 18.5755C10.21 18.8663 10.0979 19.1453 9.8993 19.3571C9.70073 19.5689 9.43018 19.698 9.14125 19.719C8.85274 19.7068 8.57972 19.5846 8.37778 19.3773C8.17583 19.17 8.06015 18.8933 8.05429 18.6034C8.05342 18.3223 8.16021 18.0517 8.35254 17.8475C8.54487 17.6433 8.80803 17.5211 9.08755 17.5063ZM7.09695 21.835C6.80716 21.825 6.53224 21.7037 6.32894 21.4961C6.12564 21.2885 6.00948 21.0105 6.00443 20.7193C6.00683 20.5757 6.03754 20.4339 6.0948 20.3023C6.15206 20.1706 6.23472 20.0517 6.33802 19.9522C6.44132 19.8528 6.56321 19.775 6.69665 19.7231C6.83009 19.6713 6.97243 19.6465 7.11546 19.6502C7.25357 19.649 7.39041 19.6767 7.5173 19.7314C7.64419 19.7861 7.75837 19.8668 7.85257 19.9682C7.94677 20.0696 8.01894 20.1896 8.06451 20.3205C8.11007 20.4514 8.12803 20.5904 8.11725 20.7286C8.12108 21.0094 8.01699 21.2809 7.82662 21.4866C7.63625 21.6923 7.37425 21.8164 7.0951 21.8331L7.09695 21.835ZM9.16717 23.9677C8.87832 23.9573 8.60387 23.8384 8.39813 23.6346C8.19238 23.4308 8.07034 23.1568 8.05614 22.8669C8.05501 22.5876 8.15824 22.3181 8.34544 22.1115C8.53263 21.905 8.79017 21.7764 9.06718 21.7513C9.21019 21.7441 9.3532 21.7655 9.48789 21.8142C9.62258 21.863 9.74626 21.9382 9.85172 22.0355C9.95719 22.1327 10.0423 22.2501 10.1022 22.3807C10.1621 22.5113 10.1955 22.6526 10.2004 22.7963C10.2087 23.0869 10.1061 23.3698 9.91378 23.5871C9.72143 23.8044 9.45373 23.9399 9.16532 23.9658L9.16717 23.9677ZM11.117 21.8443C10.8388 21.8167 10.5811 21.6848 10.3954 21.4749C10.2098 21.2651 10.1097 20.9926 10.1153 20.7119C10.118 20.5672 10.1498 20.4245 10.2088 20.2924C10.2678 20.1604 10.3528 20.0416 10.4587 19.9433C10.5645 19.845 10.689 19.7692 10.8247 19.7205C10.9605 19.6717 11.1046 19.651 11.2485 19.6595C11.3878 19.6633 11.5249 19.6956 11.6513 19.7546C11.7776 19.8136 11.8906 19.898 11.9833 20.0025C12.0759 20.1071 12.1463 20.2295 12.19 20.3624C12.2336 20.4953 12.2498 20.6357 12.2373 20.7751C12.2337 20.9192 12.2019 21.0612 12.1436 21.1929C12.0854 21.3246 12.0018 21.4435 11.8978 21.5428C11.7938 21.6421 11.6713 21.7198 11.5373 21.7715C11.4033 21.8233 11.2605 21.848 11.117 21.8443ZM26.6363 21.4222C26.6376 21.5055 26.6224 21.5881 26.5918 21.6655C26.5612 21.7429 26.5157 21.8135 26.458 21.8733C26.4002 21.933 26.3312 21.9807 26.2551 22.0137C26.1789 22.0467 26.0971 22.0643 26.0141 22.0655H24.4865C24.457 22.0655 24.4288 22.0773 24.4079 22.0982C24.3871 22.1191 24.3754 22.1475 24.3754 22.1771V23.7631C24.3766 23.8464 24.3615 23.9291 24.3309 24.0065C24.3003 24.0839 24.2548 24.1545 24.197 24.2142C24.1392 24.274 24.0703 24.3217 23.9941 24.3547C23.918 24.3877 23.8361 24.4053 23.7532 24.4065H22.457C22.3741 24.4053 22.2922 24.3877 22.216 24.3547C22.1399 24.3217 22.071 24.274 22.0132 24.2142C21.9554 24.1545 21.9099 24.0839 21.8793 24.0065C21.8487 23.9291 21.8336 23.8464 21.8348 23.7631V22.1771C21.8348 22.1475 21.8231 22.1191 21.8023 22.0982C21.7814 22.0773 21.7532 22.0655 21.7237 22.0655H20.196C20.1131 22.0643 20.0312 22.0467 19.9551 22.0137C19.8789 21.9807 19.81 21.933 19.7522 21.8733C19.6945 21.8135 19.649 21.7429 19.6184 21.6655C19.5878 21.5881 19.5726 21.5055 19.5739 21.4222V20.0797C19.5726 19.9965 19.5878 19.9138 19.6184 19.8364C19.649 19.759 19.6945 19.6884 19.7522 19.6286C19.81 19.5689 19.8789 19.5212 19.9551 19.4882C20.0312 19.4552 20.1131 19.4376 20.196 19.4364H21.7237C21.7532 19.4364 21.7814 19.4246 21.8023 19.4037C21.8231 19.3828 21.8348 19.3544 21.8348 19.3248V17.7388C21.8336 17.6555 21.8487 17.5728 21.8793 17.4954C21.9099 17.418 21.9554 17.3474 22.0132 17.2877C22.071 17.228 22.1399 17.1802 22.216 17.1472C22.2922 17.1142 22.3741 17.0966 22.457 17.0954H23.7532C23.8361 17.0966 23.918 17.1142 23.9941 17.1472C24.0703 17.1802 24.1392 17.228 24.197 17.2877C24.2548 17.3474 24.3003 17.418 24.3309 17.4954C24.3615 17.5728 24.3766 17.6555 24.3754 17.7388V19.3248C24.3754 19.3544 24.3871 19.3828 24.4079 19.4037C24.4288 19.4246 24.457 19.4364 24.4865 19.4364H26.0141C26.0971 19.4376 26.1789 19.4552 26.2551 19.4882C26.3312 19.5212 26.4002 19.5689 26.458 19.6286C26.5157 19.6884 26.5612 19.759 26.5918 19.8364C26.6224 19.9138 26.6376 19.9965 26.6363 20.0797V21.4222Z" fill="white"/>
<path d="M39.5132 12.0176C41.1594 12.0176 42.3519 12.7781 42.9759 13.691V12.1886H45.6442V22.7871C45.6442 25.6356 43.9036 27.8966 40.4594 27.8966C37.5078 27.8966 35.4468 26.4091 35.182 24.0031H37.8189C38.0837 24.9532 39.0669 25.5798 40.3909 25.5798C41.8482 25.5798 42.9833 24.745 42.9833 22.7908V21.1564C42.3593 22.0675 41.1668 22.8856 39.5206 22.8856C36.8523 22.8856 34.7339 20.7008 34.7339 17.4153C34.7339 14.1298 36.8467 12.0176 39.5132 12.0176ZM40.1946 14.3548C38.7762 14.3548 37.4318 15.4184 37.4318 17.4135C37.4318 19.4086 38.7762 20.5428 40.1946 20.5428C41.6519 20.5428 42.9722 19.4402 42.9722 17.4469C42.9722 15.4537 41.6519 14.3529 40.1946 14.3529V14.3548Z" fill="white"/>
<path d="M52.3385 12.0176C54.0217 12.0176 55.1753 12.8152 55.8012 13.691V12.1886H58.4695V22.7127H55.8012V21.1731C55.1772 22.0842 53.9846 22.8819 52.3199 22.8819C49.672 22.8819 47.5518 20.6971 47.5518 17.4116C47.5518 14.1261 49.6701 12.0176 52.3385 12.0176ZM53.0199 14.3548C51.6015 14.3548 50.2571 15.4184 50.2571 17.4135C50.2571 19.4086 51.6015 20.5428 53.0199 20.5428C54.4772 20.5428 55.7975 19.4402 55.7975 17.4469C55.7975 15.4537 54.4846 14.3529 53.0199 14.3529V14.3548Z" fill="white"/>
<path d="M75.7182 16.8982C75.7182 15.2248 74.7923 14.3528 73.3906 14.3528C71.9888 14.3528 71.0444 15.2267 71.0444 16.8982V22.7106H68.3965V16.8982C68.3965 15.2248 67.4706 14.3528 66.0689 14.3528C64.6319 14.3528 63.7042 15.2267 63.7042 16.8982V22.7106H61.0581V12.1884H63.7061V13.4603C64.369 12.5863 65.4837 12.036 66.7892 12.036C68.4168 12.036 69.7519 12.7388 70.4778 14.0497C70.8507 13.4291 71.3784 12.917 72.0088 12.5639C72.6391 12.2107 73.3502 12.0288 74.072 12.036C76.5885 12.036 78.3661 13.6313 78.3661 16.5375V22.7106H75.7182V16.8982Z" fill="white"/>
<path d="M80.5938 9.37715C80.5938 8.50325 81.2752 7.819 82.2214 7.819C82.4316 7.80869 82.6416 7.84135 82.8388 7.915C83.0361 7.98865 83.2163 8.10175 83.3687 8.24746C83.5211 8.39316 83.6424 8.56842 83.7252 8.76261C83.8081 8.9568 83.8509 9.16588 83.8509 9.37715C83.8509 9.58843 83.8081 9.7975 83.7252 9.99169C83.6424 10.1859 83.5211 10.3611 83.3687 10.5068C83.2163 10.6525 83.0361 10.7657 82.8388 10.8393C82.6416 10.913 82.4316 10.9456 82.2214 10.9353C81.277 10.9334 80.5938 10.2511 80.5938 9.37715ZM80.8771 12.1885H83.5251V22.7126H80.8771V12.1885Z" fill="white"/>
<path d="M86.4231 14.3714H85.2231V12.1885H86.4157V11.6568C86.4157 9.07223 87.8729 7.87665 90.8227 7.95289V10.1934C89.5358 10.1562 89.1006 10.5653 89.1006 11.7516V12.1885H90.9357V14.3714H89.1117V22.7107H86.4231V14.3714Z" fill="white"/>
<path d="M99.872 12.1885H102.69L96.2093 27.6901H93.3836L95.6538 22.4466L91.4541 12.1885H94.4169L97.1296 19.5386L99.872 12.1885Z" fill="white"/>
<path d="M104.523 14.3715H103.275V12.1886H104.523V9.58545H107.192V12.1886H109.538V14.3715H107.192V19.4624C107.192 20.1653 107.475 20.4702 108.303 20.4702H109.532V22.7108H107.866C105.86 22.7108 104.518 21.8554 104.518 19.4438L104.523 14.3715Z" fill="white"/>
<path d="M111.447 8.65381H114.095V13.4993C114.777 12.6068 115.947 12.036 117.349 12.036C119.713 12.036 121.435 13.6313 121.435 16.5375V22.7107H118.788V16.8983C118.788 15.2081 117.862 14.2951 116.46 14.2951C115.023 14.2951 114.095 15.2062 114.095 16.8983V22.7107H111.447V8.65381Z" fill="white"/>
<path d="M143.382 16.8984C143.382 15.2082 142.456 14.2953 141.054 14.2953C139.617 14.2953 138.689 15.2064 138.689 16.8984V22.7108H136.042V12.1886H138.689V13.4995C139.371 12.607 140.506 12.0361 141.849 12.0361C144.289 12.0361 146.03 13.6315 146.03 16.5377V22.7108H143.382V16.8984Z" fill="white"/>
<path d="M148.552 8.65381H151.2V16.6491L154.718 12.1866H158.16L153.544 17.4672L158.197 22.7107H154.749L151.192 18.2277V22.7107H148.552V8.65381Z" fill="white"/>
<path d="M132.442 15.0557C131.631 16.3573 130.983 17.6737 130.876 19.2319C130.828 19.9384 130.32 20.3289 129.602 20.3586C129.152 20.3791 128.704 20.3586 128.254 20.3586C127.804 20.3586 127.356 20.3679 126.906 20.3586C126.202 20.3438 125.7 19.9868 125.632 19.3155C125.47 17.6923 124.796 16.3071 123.965 14.9293C122.715 12.884 123.297 10.199 125.165 8.68551C126.967 7.22405 129.646 7.25008 131.379 8.73944C133.257 10.3757 133.738 12.9881 132.442 15.0557Z" fill="white"/>
<path d="M129.275 23.0009H127.181C127.102 23.0009 127.039 23.065 127.039 23.144V23.6126C127.039 23.6917 127.102 23.7558 127.181 23.7558H129.275C129.354 23.7558 129.418 23.6917 129.418 23.6126V23.144C129.418 23.065 129.354 23.0009 129.275 23.0009Z" fill="white"/>
<path d="M130.44 21.8684H126.017C125.938 21.8684 125.874 21.9325 125.874 22.0116V22.4801C125.874 22.5592 125.938 22.6233 126.017 22.6233H130.44C130.519 22.6233 130.583 22.5592 130.583 22.4801V22.0116C130.583 21.9325 130.519 21.8684 130.44 21.8684Z" fill="white"/>
<path d="M130.44 20.7343H126.017C125.938 20.7343 125.874 20.7984 125.874 20.8774V21.346C125.874 21.4251 125.938 21.4892 126.017 21.4892H130.44C130.519 21.4892 130.583 21.4251 130.583 21.346V20.8774C130.583 20.7984 130.519 20.7343 130.44 20.7343Z" fill="white"/>
<path d="M136.543 4.90192L132.924 7.95886L133.401 8.52802L137.02 5.47108L136.543 4.90192Z" fill="white"/>
<path d="M119.861 4.90264L119.384 5.4718L123.003 8.52874L123.48 7.95958L119.861 4.90264Z" fill="white"/>
<path d="M132.613 1.87102L130.664 6.19775L131.339 6.50429L133.288 2.17756L132.613 1.87102Z" fill="white"/>
<path d="M128.581 0.837352L127.841 0.842285L127.872 5.59102L128.613 5.58608L128.581 0.837352Z" fill="white"/>
<path d="M123.891 1.86778L123.216 2.17419L125.164 6.50127L125.839 6.19486L123.891 1.86778Z" fill="white"/>
</svg>
