<svg width="36" height="36" viewBox="0 0 36 36" fill="none" xmlns="http://www.w3.org/2000/svg">
<path d="M35.9456 3.52056C35.9137 3.03919 35.5966 2.62374 35.1407 2.46595C34.6848 2.30816 34.1788 2.43873 33.8561 2.79738C33.0267 3.71936 31.9783 4.34411 30.9144 4.62897C29.4347 3.24747 27.4464 2.39995 25.2615 2.39995C20.5723 2.39995 16.7742 6.20666 16.7742 10.8986V11.9541C9.59516 11.3993 5.75611 5.94586 4.7202 3.17917C4.55276 2.73197 4.13609 2.4266 3.65922 2.4016C3.18235 2.37659 2.73604 2.63671 2.52275 3.06396C0.0106035 8.09601 -0.376458 12.9766 1.44936 17.1326C3.04877 20.7732 6.26533 23.6733 10.8242 25.5946C8.7523 27.0629 5.26509 28.7999 1.20009 28.7999C0.671451 28.7999 0.205079 29.1459 0.0517068 29.6518C-0.101666 30.1577 0.0940932 30.7044 0.533741 30.9979C4.43159 33.6005 8.51675 33.6002 12.3164 33.6L12.4327 33.5999C24.0983 33.5999 33.5519 24.129 33.5519 12.4499V11.302C34.4242 10.4155 35.1032 9.50804 35.5194 8.33487C35.9838 7.0258 36.0774 5.5079 35.9456 3.52056Z" fill="white"/>
</svg>
